<?xml version="1.0" encoding="UTF-8" standalone="no"?>
<!-- Created with Inkscape (http://www.inkscape.org/) -->

<svg
   width="512"
   height="512"
   viewBox="0 0 135.46666 135.46667"
   version="1.1"
   id="svg1052"
   inkscape:version="1.1.1 (3bf5ae0d25, 2021-09-20)"
   sodipodi:docname="Defense Establishments.svg"
   xmlns:inkscape="http://www.inkscape.org/namespaces/inkscape"
   xmlns:sodipodi="http://sodipodi.sourceforge.net/DTD/sodipodi-0.dtd"
   xmlns="http://www.w3.org/2000/svg"
   xmlns:svg="http://www.w3.org/2000/svg">
  <sodipodi:namedview
     id="namedview1054"
     pagecolor="#ffffff"
     bordercolor="#666666"
     borderopacity="1.0"
     inkscape:pageshadow="2"
     inkscape:pageopacity="0.0"
     inkscape:pagecheckerboard="0"
     inkscape:document-units="mm"
     showgrid="false"
     units="px"
     inkscape:zoom="0.52410025"
     inkscape:cx="124.97609"
     inkscape:cy="121.16003"
     inkscape:window-width="1920"
     inkscape:window-height="1017"
     inkscape:window-x="-8"
     inkscape:window-y="-8"
     inkscape:window-maximized="1"
     inkscape:current-layer="layer1" />
  <defs
     id="defs1049" />
  <g
     inkscape:label="Layer 1"
     inkscape:groupmode="layer"
     id="layer1">
    <path
       style="fill:#000000;stroke-width:0.264583"
       d="m 12.1538,124.68002 c -0.4036,-0.42885 -0.52345,-0.81725 -0.42861,-1.38906 0.0724,-0.43656 1.74589,-4.42188 3.71886,-8.85627 l 3.58722,-8.06252 10.85942,-10.861776 10.85943,-10.86179 -1.43632,-2.82681 c -3.76993,-7.41959 -5.91354,-14.94786 -6.49909,-22.82457 -0.34831,-4.6855 -0.35929,-13.11193 -0.0183,-14.00895 0.1426,-0.37506 0.5661,-0.82173 0.94111,-0.9926 0.6729,-0.30659 0.58552,-0.40703 -6.66733,-7.66335 l -7.34916,-7.35268 -2.78621,2.7375 c -1.53241,1.50563 -3.04815,2.81861 -3.3683,2.91774 -1.3033,0.40354 -2.77088,-1.0985 -2.35465,-2.40993 0.0846,-0.26643 1.40548,-1.73189 2.93537,-3.25657 l 2.78161,-2.77215 -4.80765,-4.81293 c -4.19983,-4.20444 -4.80766,-4.91841 -4.80766,-5.64724 0,-0.72991 0.60967,-1.44227 4.87275,-5.69349 3.15812,-3.1493402 5.1348,-4.9224202 5.61749,-5.0389002 0.69209,-0.16701 1.09486,0.16862 5.69533,4.74599 l 4.95057,4.9257202 2.77134,-2.78526 c 1.52424,-1.53189 3.0401,-2.8537802 3.36858,-2.9375202 0.72508,-0.18485 1.86091,0.50398 2.15877,1.3091902 0.36774,0.99409 -0.17287,1.84476 -2.89708,4.55876 l -2.64067,2.63075 9.45929,9.46202 c 5.2026,5.20411 9.60748,9.46202 9.78861,9.46202 0.18114,0 4.48384,-1.84547 9.56156,-4.10104 5.07773,-2.25557 9.43869,-4.10104 9.69103,-4.10104 0.25234,0 4.6133,1.84547 9.69103,4.10104 5.07772,2.25557 9.38043,4.10104 9.56157,4.10104 0.37846,0 18.97969,-18.52764 18.97969,-18.90459 0,-0.1368 -1.25016,-1.51737 -2.77812,-3.06794 -2.90462,-2.94758 -3.19316,-3.51094 -2.38743,-4.6612802 0.5343,-0.76282 1.57114,-0.97836 2.45585,-0.51055 0.39893,0.21095 1.79441,1.4636302 3.10106,2.7837402 1.30665,1.32011 2.49728,2.40004 2.64583,2.39984 0.14856,-2.1e-4 2.35079,-2.0838 4.89386,-4.6302102 3.97478,-3.98001 4.73735,-4.62984 5.4331,-4.62984 0.69856,0 1.48722,0.68129 5.76114,4.9767802 4.12669,4.14751 4.95179,5.10369 4.95179,5.73843 0,0.63336 -0.79991,1.56665 -4.74861,5.54041 l -4.74862,4.77875 2.76424,2.82368 c 2.4209,2.47296 2.76424,2.93617 2.76424,3.72931 0,1.11511 -0.75588,1.86958 -1.87309,1.86958 -0.67339,0 -1.27913,-0.46974 -3.63765,-2.82095 l -2.82972,-2.82095 -7.40352,7.40706 c -4.07193,4.07389 -7.25548,7.40706 -7.07456,7.40706 0.18093,0 0.56709,0.23813 0.85813,0.52917 0.50376,0.50377 0.52916,0.88194 0.52916,7.87829 0,4.04203 -0.12517,8.35804 -0.27816,9.59115 -0.78428,6.32127 -2.65819,12.48744 -5.71927,18.81939 l -2.04085,4.22157 11.00046,11.03178 11.00045,11.031776 3.46973,7.95167 c 1.9464,4.46062 3.46973,8.30497 3.46973,8.75639 0,0.98208 -0.71237,1.68048 -1.7141,1.68048 -0.41051,0 -4.3302,-1.56732 -8.71042,-3.48294 l -7.96402,-3.48294 -10.18646,-10.12693 -10.18646,-10.126936 -2.22167,2.381986 c -4.29773,4.60786 -14.83681,13.26116 -16.57332,13.60782 -0.65797,0.13136 -1.12482,-0.0875 -2.90084,-1.35989 -3.99028,-2.85874 -8.71347,-6.85958 -12.62462,-10.69386 l -3.91375,-3.836806 -9.85477,9.873996 c -5.42013,5.4307 -10.28057,10.09592 -10.80098,10.36716 -2.85096,1.48595 -15.67449,6.87934 -16.35657,6.87934 -0.48783,0 -1.01944,-0.23256 -1.36083,-0.59532 z m 15.35631,-9.38409 c 0.44087,-0.15988 20.37292,-19.945366 20.37292,-20.223106 0,-0.0962 -0.92274,-1.40648 -2.05052,-2.91173 -1.12779,-1.50523 -2.24978,-3.03445 -2.49333,-3.39825 l -0.4428,-0.66146 -10.40511,10.39476 -10.40511,10.394756 -2.24896,5.17947 c -1.23693,2.8487 -2.28734,5.28111 -2.33424,5.40534 -0.0469,0.12423 2.09622,-0.73302 4.7625,-1.90499 2.66628,-1.17198 5.02637,-2.19564 5.24465,-2.27479 z m 94.19166,4.00983 c 0,-0.0818 -1.01959,-2.49283 -2.26576,-5.35781 l -2.26577,-5.20907 -10.23452,-10.252596 c -5.62899,-5.63894 -10.30254,-10.25261 -10.38567,-10.25261 -0.0831,0 -0.78979,0.91471 -1.57036,2.03269 -0.78058,1.11798 -1.94738,2.68112 -2.59289,3.47364 l -1.17367,1.44094 9.82034,9.821676 9.82033,9.82168 5.22555,2.2999 c 5.25019,2.31076 5.62242,2.45519 5.62242,2.18156 z M 67.66255,73.530674 c -0.0374,-0.0366 -6.33578,-0.10693 -13.99631,-0.15626 l -13.92825,-0.0897 0.39117,1.05834 c 0.21515,0.58208 1.26724,2.84427 2.338,5.02708 2.11757,4.31681 4.8472,8.61103 7.98326,12.55915 2.69508,3.39297 10.35085,10.973526 14.10136,13.962856 l 3.0427,2.42517 0.0681,-17.360036 c 0.0374,-9.54802 0.0374,-17.38999 0,-17.4266 z m 7.5734,31.967056 c 10.39942,-8.397446 18.75102,-19.036926 23.31691,-29.704436 0.50815,-1.18723 0.92391,-2.20757 0.92391,-2.26744 0,-0.0599 -6.25078,-0.10884 -13.89062,-0.10884 H 71.69553 v 17.3302 c 0,9.531616 0.0778,17.330206 0.17287,17.330206 0.0951,0 1.61048,-1.16086 3.36755,-2.57969 z M 55.99398,69.183674 h 11.7328 v -18.00949 c 0,-17.19972 -0.0214,-18.00272 -0.47466,-17.85885 -0.26106,0.0829 -7.25598,3.17338 -15.54427,6.86782 l -15.06961,6.71717 -0.0814,5.2547 c -0.0448,2.89008 0.051,6.56438 0.21277,8.16511 0.28647,2.83394 1.12155,7.23863 1.62181,8.55444 l 0.24829,0.65306 2.81075,-0.17198 c 1.54591,-0.0946 8.0905,-0.17198 14.54354,-0.17198 z m 45.37736,-1.98437 c 0.9218,-3.60926 1.29981,-7.14507 1.46289,-13.68334 l 0.16312,-6.53959 -0.63581,-0.24617 c -0.3497,-0.13539 -7.33763,-3.23499 -15.52874,-6.88801 -8.19111,-3.65302 -14.9479,-6.64185 -15.0151,-6.64185 -0.0672,0 -0.12217,8.09726 -0.12217,17.99391 v 17.9939 l 14.6014,-0.0684 14.6014,-0.0684 z M 42.22652,40.189624 c 2.16519,-0.95809 4.02337,-1.8246 4.12927,-1.92557 0.1059,-0.10099 -3.85294,-4.22778 -8.79742,-9.17066 l -8.98998,-8.98706 -3.10728,3.10729 -3.10728,3.10728 7.80198,7.80535 c 4.29109,4.29294 7.87668,7.80534 7.96798,7.80534 0.0913,0 1.93753,-0.78389 4.10273,-1.74197 z m 66.8444,-6.13236 7.87105,-7.87432 -3.04549,-3.03685 -3.04548,-3.03684 -8.98852,8.9856 c -4.94368,4.94208 -8.90187,9.06843 -8.79596,9.16967 0.17857,0.17071 7.7013,3.59959 7.99941,3.64615 0.0737,0.0115 3.67591,-3.52253 8.00499,-7.85341 z m -86.32286,-13.68966 3.03452,-3.04315 -3.82889,-3.83574 -3.82889,-3.8357302 -3.11296,3.1048502 -3.11297,3.10486 3.7673,3.77403 c 2.07202,2.07572 3.83032,3.77404 3.90734,3.77404 0.077,0 1.50556,-1.36942 3.17455,-3.04316 z m 101.59587,-7.67333 -3.04386,-3.0438602 -3.83018,3.8370202 -3.83017,3.83702 3.03612,3.04475 3.03612,3.04476 3.83791,-3.83792 3.83792,-3.83791 z"
       id="path713" />
  </g>
</svg>
