<?xml version="1.0" encoding="UTF-8" standalone="no"?>
<!-- Created with Inkscape (http://www.inkscape.org/) -->

<svg
   width="512"
   height="512"
   viewBox="0 0 135.46666 135.46667"
   version="1.1"
   id="svg1052"
   inkscape:version="1.1.1 (3bf5ae0d25, 2021-09-20)"
   sodipodi:docname="Equipment Manufacturers.svg"
   xmlns:inkscape="http://www.inkscape.org/namespaces/inkscape"
   xmlns:sodipodi="http://sodipodi.sourceforge.net/DTD/sodipodi-0.dtd"
   xmlns="http://www.w3.org/2000/svg"
   xmlns:svg="http://www.w3.org/2000/svg">
  <sodipodi:namedview
     id="namedview1054"
     pagecolor="#ffffff"
     bordercolor="#666666"
     borderopacity="1.0"
     inkscape:pageshadow="2"
     inkscape:pageopacity="0.0"
     inkscape:pagecheckerboard="0"
     inkscape:document-units="mm"
     showgrid="false"
     units="px"
     inkscape:zoom="0.52410025"
     inkscape:cx="124.97609"
     inkscape:cy="121.16003"
     inkscape:window-width="1920"
     inkscape:window-height="1017"
     inkscape:window-x="-8"
     inkscape:window-y="-8"
     inkscape:window-maximized="1"
     inkscape:current-layer="layer1" />
  <defs
     id="defs1049" />
  <g
     inkscape:label="Layer 1"
     inkscape:groupmode="layer"
     id="layer1">
    <path
       style="fill:#000000;stroke-width:0.264583"
       d="m 44.216944,126.70252 c -0.40937,-0.40937 -0.64943,-0.95173 -0.64943,-1.46724 0,-0.5155 0.24006,-1.05786 0.64943,-1.46723 0.62559,-0.62559 0.78098,-0.64943 4.23333,-0.64943 h 3.5839 v -2.11667 -2.11667 h -16.2839 -16.2839 l -0.64943,-0.64943 c -0.85919,-0.85919 -0.85919,-2.07527 0,-2.93447 l 0.64943,-0.64943 h 16.2839 16.2839 v -22.6339 -22.6339 l 0.64944,-0.64943 c 0.53337,-0.53337 0.91163,-0.64943 2.11666,-0.64943 h 1.46724 V 42.08268 16.08007 l -4.81538,0.3468 c -2.64845,0.19074 -4.85941,0.39085 -4.91325,0.44468 -0.0538,0.0538 0.17211,0.61543 0.50208,1.24799 0.90404,1.73303 0.87417,4.85763 -0.0656,6.86154 -1.76461,3.76286 -6.03701,5.78323 -9.77771,4.62377 -0.78946,-0.24469 -1.5842,-0.50725 -1.7661,-0.58345 -0.26288,-0.11012 -0.33073,3.93088 -0.33073,19.69608 V 68.5521 l 5.96482,2.05367 c 4.16853,1.43521 6.08081,2.21927 6.35,2.60359 0.32785,0.46808 0.38518,3.18121 0.38518,18.23016 v 17.68023 l -0.64944,0.64943 -0.64943,0.64944 h -13.5178 -13.5178 l -0.64943,-0.64944 -0.64943,-0.64943 V 91.40996 c 0,-16.48298 0.0321,-17.74746 0.46302,-18.25347 0.30548,-0.35868 2.4153,-1.17886 6.20094,-2.41056 3.15586,-1.02679 5.80205,-1.86689 5.88044,-1.86689 0.0784,0 0.17522,-11.16211 0.2152,-24.80469 l 0.0727,-24.80469 0.72758,-1.38022 c 0.97243,-1.8447 2.35235,-3.17518 4.14383,-3.99534 1.44746,-0.66267 2.10083,-0.72145 32.03746,-2.88245 16.80793,-1.2132996 31.14175,-2.1372796 31.85292,-2.0532996 2.703946,0.31932 5.242636,2.2249496 6.480456,4.8644696 l 0.69316,1.47809 0.13229,14.07762 0.1323,14.07763 6.35,4.50655 c 6.84304,4.85646 7.37521,5.40095 6.68536,6.84027 -0.40493,0.84486 -1.58882,1.47575 -2.32867,1.24093 -0.29126,-0.0924 -3.29568,-2.14246 -6.67647,-4.5556 -3.38079,-2.41314 -6.26595,-4.38427 -6.41147,-4.38029 -0.14553,0.004 -4.5731,2.58237 -9.839066,5.72975 -5.92959,3.54403 -9.83721,5.72252 -10.26463,5.72252 -1.46997,0 -2.52958,-2.08012 -1.65828,-3.25539 0.1819,-0.24536 4.67651,-3.03871 9.98802,-6.20745 l 9.657286,-5.76133 0.0696,-9.34443 c 0.0554,-7.44489 0.002,-9.31605 -0.26459,-9.20476 -2.763366,1.15522 -5.051866,1.18368 -7.435406,0.0925 -3.69861,-1.69328 -5.73677,-6.07741 -4.57025,-9.83072 0.22403,-0.72081 0.37202,-1.34587 0.32886,-1.38903 -0.0918,-0.0918 -14.84881,0.92118 -16.50473,1.13299 l -1.12448,0.14383 v 26.57441 26.57442 h 1.46723 c 1.20503,0 1.5833,0.11606 2.11667,0.64943 l 0.64943,0.64943 v 7.81724 7.81723 h 20.54066 c 14.978216,0 20.821886,0.0843 21.579196,0.31115 1.49822,0.44888 3.20876,2.06841 3.91253,3.70437 0.48574,1.12913 0.56781,1.67655 0.4378,2.92038 l -0.15999,1.53076 h 1.59547 c 1.34118,0 1.69897,0.10351 2.2449,0.64944 0.64416,0.64416 0.64943,0.69041 0.64943,5.70056 0,5.01016 -0.005,5.05641 -0.64943,5.70057 -0.6256,0.6256 -0.78098,0.64943 -4.23334,0.64943 h -3.5839 v 8.46667 8.46667 h 1.46724 c 1.76537,0 2.7661,0.76577 2.7661,2.11666 0,0.51551 -0.24006,1.05787 -0.64944,1.46724 l -0.64943,0.64943 h -9.28447 -9.28447 l -0.64943,-0.64943 c -0.85919,-0.8592 -0.85919,-2.07528 0,-2.93447 0.53337,-0.53337 0.91164,-0.64943 2.11667,-0.64943 h 1.46723 v -8.46667 -8.46667 H 92.250874 77.434204 v 8.46667 8.46667 h 3.5839 c 3.45235,0 3.60774,0.0238 4.23334,0.64943 0.85919,0.85919 0.85919,2.07527 0,2.93447 l -0.64943,0.64943 h -19.86785 -19.8678 z m 28.9839,-28.9839 v -25.4 h -8.46667 -8.46666 v 25.4 25.4 h 8.46666 8.46667 z m 42.333326,16.93333 v -8.46667 h -2.11667 -2.11666 v 8.46667 8.46667 h 2.11666 2.11667 z m -71.966656,-12.7 v -4.23333 h -10.16482 c -5.59065,0 -10.35315,-0.0723 -10.58333,-0.1606 -0.37128,-0.14247 -0.41852,0.33534 -0.41852,4.23333 v 4.39393 h 10.58333 10.58334 z M 124.00084,99.83528 V 97.71862 H 100.7175 77.434174 v 2.11666 2.11667 h 23.283326 23.28334 z m -90.598146,-6.35 h 10.16482 v -4.23333 -4.23333 h -10.16482 c -5.59065,0 -10.35315,-0.0723 -10.58333,-0.1606 -0.37165,-0.14261 -0.41852,0.3495 -0.41852,4.39393 0,4.04444 0.0469,4.53655 0.41852,4.39393 0.23018,-0.0883 4.99268,-0.1606 10.58333,-0.1606 z m 85.715376,-0.64943 c 0.40937,-0.40937 0.64943,-0.95173 0.64943,-1.46723 0,-0.51551 -0.24006,-1.05786 -0.64943,-1.46724 l -0.64943,-0.64943 H 97.951404 77.434174 v 2.11667 2.11666 h 20.51723 20.517236 z M 33.402694,80.78529 h 10.16482 l -0.002,-2.4474 -0.002,-2.4474 -5.09212,-1.72829 -5.09211,-1.7283 -5.42265,1.74299 -5.42264,1.74298 -0.0761,2.59713 c -0.0675,2.3033 -0.0276,2.57853 0.35237,2.43271 0.23557,-0.0904 5.00256,-0.16442 10.59321,-0.16442 z M 68.967514,41.59042 V 15.09554 l -1.65365,0.15869 c -0.90951,0.0873 -2.81451,0.2391 -4.23333,0.33737 l -2.57969,0.17868 v 26.15751 26.1575 h 4.23333 4.23334 z M 41.008674,25.39105 c 2.71849,-1.13586 3.38121,-4.69982 1.26705,-6.81398 -1.71623,-1.71623 -4.16686,-1.71623 -5.88309,0 -3.27198,3.27199 0.33831,8.60133 4.61604,6.81398 z m 59.266666,-4.23333 c 2.71849,-1.13586 3.3812,-4.69982 1.26704,-6.81398 -1.716226,-1.71623 -4.166846,-1.71623 -5.883086,0 -3.27198,3.27198 0.33832,8.60133 4.616046,6.81398 z"
       id="path595" />
  </g>
</svg>
