<?xml version="1.0" encoding="UTF-8" standalone="no"?>
<!-- Created with Inkscape (http://www.inkscape.org/) -->

<svg
   width="512"
   height="512"
   viewBox="0 0 135.46666 135.46667"
   version="1.1"
   id="svg1052"
   inkscape:version="1.1.1 (3bf5ae0d25, 2021-09-20)"
   sodipodi:docname="Major Telecom Operators.svg"
   xmlns:inkscape="http://www.inkscape.org/namespaces/inkscape"
   xmlns:sodipodi="http://sodipodi.sourceforge.net/DTD/sodipodi-0.dtd"
   xmlns="http://www.w3.org/2000/svg"
   xmlns:svg="http://www.w3.org/2000/svg">
  <sodipodi:namedview
     id="namedview1054"
     pagecolor="#ffffff"
     bordercolor="#666666"
     borderopacity="1.0"
     inkscape:pageshadow="2"
     inkscape:pageopacity="0.0"
     inkscape:pagecheckerboard="0"
     inkscape:document-units="mm"
     showgrid="false"
     units="px"
     inkscape:zoom="0.52410025"
     inkscape:cx="138.33231"
     inkscape:cy="132.60822"
     inkscape:window-width="1920"
     inkscape:window-height="1017"
     inkscape:window-x="-8"
     inkscape:window-y="-8"
     inkscape:window-maximized="1"
     inkscape:current-layer="layer1" />
  <defs
     id="defs1049" />
  <g
     inkscape:label="Layer 1"
     inkscape:groupmode="layer"
     id="layer1">
    <path
       style="fill:#000000;stroke-width:0.210059"
       d="m 43.588481,121.15408 c -0.962354,-0.41733 -1.627812,-1.05546 -2.137682,-2.04987 -0.367402,-0.71657 -0.407089,-1.1531 -0.347157,-3.819 0.0752,-3.34503 0.140554,-3.52704 1.727824,-4.81173 0.707147,-0.57234 0.972193,-0.64977 2.454598,-0.71709 l 1.661856,-0.0755 v -0.70262 c 0,-1.39177 0.451412,-2.84492 1.120481,-3.60694 0.747451,-0.8513 1.486625,-1.21209 2.922042,-1.42626 0.967177,-0.1443 1.005151,-0.17754 1.28297,-1.1228 0.157464,-0.53575 3.246796,-11.128737 6.865193,-23.539967 l 6.578898,-22.565869 -0.507927,-0.33053 c -1.02678,-0.668161 -2.129412,-1.794595 -2.571349,-2.626845 -0.645154,-1.21494 -0.645154,-3.855115 0,-5.070055 0.55126,-1.038131 1.938402,-2.327062 2.975595,-2.76492 0.984824,-0.415753 3.274983,-0.415753 4.259807,0 1.037193,0.437858 2.424333,1.726789 2.975593,2.76492 0.64516,1.21494 0.64516,3.855115 0,5.070055 -0.44193,0.83225 -1.54456,1.958684 -2.57134,2.626845 l -0.507927,0.33053 6.578897,22.565869 c 3.61839,12.41123 6.70773,23.004217 6.86519,23.539967 0.27782,0.94526 0.3158,0.9785 1.28297,1.1228 1.43542,0.21417 2.1746,0.57496 2.92204,1.42626 0.66907,0.76202 1.12049,2.21517 1.12049,3.60694 v 0.70262 l 1.66185,0.0755 c 1.48241,0.0673 1.74745,0.14475 2.45459,0.71709 1.56548,1.26705 1.65243,1.49666 1.73041,4.56977 0.0777,3.06031 -0.0972,3.97019 -0.9599,4.99546 -1.00994,1.20025 -1.88377,1.44018 -5.26411,1.44538 -2.9111,0.004 -3.01863,-0.0112 -3.51848,-0.511 -0.6616,-0.6616 -0.67391,-1.57307 -0.0294,-2.17854 0.44815,-0.42101 0.70166,-0.45674 3.24091,-0.45674 3.50008,0 3.41492,0.07 3.41492,-2.80878 0,-1.39106 -0.0889,-2.23748 -0.25207,-2.40067 -0.36586,-0.36586 -46.18315,-0.36586 -46.549012,0 -0.40426,0.40426 -0.339372,4.46196 0.07803,4.87936 0.294833,0.29484 2.21133,0.33009 17.942834,0.33009 9.687008,0 17.765758,0.0587 17.952778,0.13049 0.55994,0.21487 0.98292,1.23832 0.75717,1.83207 -0.47535,1.25026 0.51029,1.18909 -19.017084,1.18011 -15.477831,-0.007 -17.958651,-0.0507 -18.594464,-0.3264 z M 75.515893,108.5063 c 0,-2.42406 1.44374,-4.18812 3.72855,-4.5558 0.49101,-0.079 0.89148,-0.25351 0.88994,-0.38778 -0.001,-0.13425 -0.26315,-1.11029 -0.58134,-2.16897 l -0.57854,-1.924876 -5.49055,-4.009291 c -3.01981,-2.205108 -5.602903,-4.009282 -5.740227,-4.009282 -0.137316,0 -2.720418,1.804174 -5.740225,4.009282 l -5.490549,4.009291 -0.578531,1.924876 c -0.318189,1.05868 -0.579797,2.03472 -0.581345,2.16897 -0.0015,0.13427 0.398931,0.30876 0.88994,0.38778 2.284801,0.36768 3.728539,2.13174 3.728539,4.5558 v 1.21911 h 7.772171 7.772167 z m -18.695216,0.26004 c 0,-1.35759 -0.247994,-1.56164 -1.897919,-1.56164 h -1.463016 v 1.15533 1.15532 h 1.680464 1.680471 z m 28.316386,-0.3538 -0.0635,-1.10281 -1.52292,-0.0617 -1.52293,-0.0617 v 1.16453 1.16452 h 1.58642 1.58642 z M 62.66372,91.135208 c 1.286051,-0.924253 2.338093,-1.727727 2.337862,-1.785493 -4.17e-4,-0.113923 -4.476213,-3.354594 -4.542107,-3.288708 -0.07383,0.07376 -2.378448,8.005309 -2.378448,8.185497 0,0.09781 0.504994,-0.18411 1.122215,-0.626494 0.617212,-0.442384 2.174427,-1.560542 3.460478,-2.484802 z m 13.594113,-0.977917 c -0.65339,-2.229923 -1.20641,-4.072838 -1.22894,-4.095368 -0.0668,-0.06684 -4.54268,3.173252 -4.54173,3.287792 0.001,0.153021 6.79535,5.025278 6.88393,4.936699 0.0411,-0.04109 -0.45987,-1.8992 -1.11326,-4.129123 z m -5.67687,-4.816233 c 1.44336,-1.049437 2.62429,-1.984817 2.62429,-2.078621 0,-0.175224 -5.263631,-4.835779 -5.461527,-4.835779 -0.266497,0 -5.470251,4.700145 -5.408578,4.885148 0.09634,0.289043 5.035288,3.905564 5.357512,3.923018 0.145206,0.0078 1.444944,-0.844329 2.888303,-1.893766 z m -6.205794,-8.24682 0.89236,-0.807278 -0.694033,-0.716057 c -0.381715,-0.393832 -0.757573,-0.644982 -0.835226,-0.558107 -0.135769,0.151875 -1.03595,3.020126 -1.03595,3.30084 0,0.18717 0.60767,-0.255787 1.672849,-1.219398 z m 7.975384,-0.378344 c -0.2531,-0.84983 -0.52371,-1.616223 -0.60137,-1.703098 -0.0777,-0.08687 -0.45351,0.164275 -0.83523,0.558107 l -0.694021,0.716057 0.891021,0.804985 c 1.06,0.957642 1.54486,1.323995 1.63413,1.234724 0.0361,-0.0361 -0.14143,-0.760953 -0.39453,-1.610775 z m -3.120767,-3.867322 c 0.742352,-0.641767 1.384817,-1.266914 1.427687,-1.389203 0.10133,-0.288968 -2.728631,-10.047467 -2.913747,-10.047467 -0.185115,0 -3.015065,9.758499 -2.913751,10.047467 0.09034,0.257677 2.710363,2.556054 2.913751,2.556054 0.07498,0 0.743708,-0.525083 1.48606,-1.166851 z M 69.092254,53.321244 c 2.041089,-1.544369 1.15541,-4.499495 -1.348528,-4.499495 -1.023907,0 -1.538853,0.287323 -2.13486,1.191196 -0.686396,1.040937 -0.352242,2.446806 0.786333,3.308299 0.520342,0.393713 2.17672,0.393713 2.697055,0 z M 51.094646,83.511696 C 46.951739,81.37688 44.398922,79.457398 41.04412,75.954599 29.461633,63.861171 27.677346,44.84567 36.811651,30.848365 c 3.798168,-5.820268 8.979586,-10.293851 15.435875,-13.327171 9.973163,-4.685639 21.297567,-4.719974 31.029437,-0.09408 2.60937,1.240323 7.01429,4.05194 7.35992,4.69776 0.57024,1.065493 -0.0963,2.3167 -1.23417,2.3167 -0.35864,0 -1.02512,-0.300129 -1.62796,-0.7331 -10.45594,-7.509686 -23.211595,-8.670978 -34.630105,-3.15277 -9.607598,4.643051 -16.106595,12.956564 -18.40879,23.548514 -0.628355,2.890923 -0.683158,9.480085 -0.104649,12.581363 1.28454,6.886153 4.401046,12.795826 9.365715,17.759736 2.916699,2.916259 5.252625,4.623853 8.798096,6.431563 1.232088,0.628199 2.358315,1.297223 2.502732,1.486715 0.654257,0.858486 -0.126048,2.364828 -1.22501,2.364828 -0.339678,0 -1.677874,-0.546735 -2.978096,-1.216727 z m 29.267857,0.663248 c -0.49374,-0.627677 -0.55839,-1.305395 -0.17279,-1.811349 0.14441,-0.189492 1.27064,-0.858516 2.50273,-1.486715 3.54547,-1.80771 5.88139,-3.515304 8.79809,-6.431563 6.196516,-6.195582 9.447197,-13.639367 9.795837,-22.431619 0.34004,-8.575706 -2.445501,-16.581166 -8.053427,-23.145045 -1.50774,-1.764746 -1.67232,-2.425852 -0.81687,-3.281304 0.95012,-0.950112 1.63044,-0.641412 3.49307,1.584989 11.955417,14.290335 11.320137,35.432286 -1.4658,48.782261 -3.35298,3.500894 -6.06233,5.528806 -10.28352,7.697086 -2.40013,1.232855 -3.15711,1.337169 -3.79732,0.523259 z M 54.930148,73.994389 C 48.512541,70.510026 44.005863,64.610356 41.948879,57.000674 41.45892,55.188096 41.408486,54.629519 41.398832,50.908967 c -0.0095,-3.632926 0.04578,-4.321801 0.488106,-6.091693 2.616633,-10.469995 10.279087,-17.868139 20.815382,-20.097401 2.468099,-0.522199 7.614723,-0.522199 10.082813,0 9.26571,1.960432 16.57225,8.147054 19.82037,16.782404 1.21301,3.224877 1.49452,5.01037 1.48312,9.40669 -0.01,3.720552 -0.0601,4.279129 -0.55005,6.091707 -1.07482,3.97628 -2.59314,7.127769 -4.84036,10.046901 -2.10569,2.735282 -5.47296,5.571856 -8.40768,7.082597 -1.35992,0.700061 -1.6759,0.788246 -2.18402,0.609554 -0.32674,-0.114913 -0.72516,-0.482427 -0.88538,-0.816708 -0.4848,-1.011493 -0.12519,-1.54355 1.78516,-2.641232 6.20022,-3.562634 10.44313,-9.421918 11.73335,-16.203236 0.43366,-2.27933 0.43087,-6.284556 -0.006,-8.580782 -1.11416,-5.856254 -4.20053,-10.805601 -9.02203,-14.467824 -1.97646,-1.501229 -5.62591,-3.260794 -8.19129,-3.949374 -1.90089,-0.510228 -2.45003,-0.563826 -5.776609,-0.563826 -3.326571,0 -3.87571,0.0536 -5.776614,0.563826 -8.871722,2.381291 -15.51469,9.488865 -17.213307,18.417198 -0.424774,2.232685 -0.441751,6.299189 -0.03513,8.420712 1.341263,6.998588 5.749023,13.074441 11.948639,16.470545 0.78212,0.428443 1.520997,0.963879 1.641939,1.189864 0.489371,0.914398 -0.338688,2.281027 -1.377734,2.273815 -0.234247,-0.0015 -1.134838,-0.387864 -2.001333,-0.858315 z M 58.267594,63.841395 C 51.511798,58.88326 49.617213,49.657206 53.881039,42.480127 c 2.101925,-3.538072 5.766142,-6.278482 9.841422,-7.360269 2.218632,-0.588945 5.823899,-0.588945 8.042532,0 7.55519,2.005526 12.58552,8.972525 12.08352,16.735646 -0.31569,4.881902 -3.21452,9.905848 -7.07283,12.257874 -1.00464,0.612427 -1.75811,0.578256 -2.29483,-0.104069 -0.60168,-0.764912 -0.55221,-1.486059 0.1423,-2.074259 0.31771,-0.26908 1.05029,-0.888474 1.62795,-1.376424 5.73043,-4.840505 6.02153,-13.602226 0.63127,-19.000548 -1.58736,-1.589734 -3.50737,-2.734322 -5.67268,-3.381702 -1.719252,-0.514023 -5.212674,-0.514023 -6.931931,0 -5.39664,1.613477 -9.147203,6.276503 -9.495157,11.805197 -0.272124,4.323869 1.334416,7.910209 4.927246,10.999259 0.838092,0.720566 1.578703,1.528909 1.645817,1.796299 0.123591,0.492431 -0.204847,1.342454 -0.627842,1.624895 -0.528298,0.352755 -1.525225,0.125579 -2.460232,-0.560631 z"
       id="path123" />
  </g>
</svg>
