<?xml version="1.0" encoding="UTF-8"?>
<!-- Created with Inkscape (http://www.inkscape.org/) -->
<svg width="512" height="512" version="1.1" viewBox="0 0 135.47 135.47" xmlns="http://www.w3.org/2000/svg">
 <path d="m13.242 126.23c-1.0872-0.5018-1.7715-1.2128-2.2352-2.3226-0.29879-0.71511-0.34692-2.4651-0.34268-12.462 0.0045-10.827 0.03355-11.692 0.41956-12.528 0.5018-1.0872 1.2128-1.7715 2.3226-2.2352 0.71511-0.29879 2.4651-0.34691 12.462-0.34267 10.827 4e-3 11.692 0.0336 12.528 0.41955 1.0872 0.5018 1.7715 1.2128 2.2352 2.3226 0.27638 0.66146 0.34761 1.8004 0.34761 5.5579v4.726l19.876-0.117v-19.989l-4.6042-0.1123c-4.9782-0.12142-5.2981-0.19372-6.5948-1.4905-1.2578-1.2578-1.3694-1.6929-1.4905-5.8088l-0.11229-3.8181-1.0565-0.06803c-1.0066-0.06482-1.0822-0.02776-1.6014 0.78607-1.1156 1.7485-2.4901 2.5385-4.4167 2.5385-2.8662 0-4.9312-2.0691-4.9312-4.941 0-2.872 2.0649-4.941 4.9312-4.941 1.9266 0 3.3012 0.79002 4.4167 2.5386 0.51922 0.8138 0.59479 0.85089 1.6014 0.78607l1.0565-0.06803v-7.187l-22.991-0.11638-0.46389-0.58974c-0.45574-0.57939-0.46389-0.802-0.46389-12.687v-12.098l-4.9972-0.0051c-5.4243-0.0051-6.1592-0.14371-7.2885-1.3722-1.1885-1.2929-1.1898-1.3078-1.1898-13.783 0-9.9448 0.04909-11.698 0.3476-12.413 0.46371-1.1098 1.148-1.8208 2.2352-2.3226 0.83694-0.38627 1.697-0.41462 12.577-0.41462s11.74 0.02833 12.577 0.41462c1.0872 0.5018 1.7715 1.2128 2.2352 2.3226 0.28216 0.67532 0.34761 1.8847 0.34761 6.4237 0 5.3169-0.02286 5.6208-0.46549 6.1835-0.64374 0.81839-1.7942 0.81839-2.4379 0-0.44175-0.5616-0.46548-0.86849-0.46548-6.0191 0-3.9218-0.07476-5.5021-0.26951-5.6968-0.38845-0.38845-22.655-0.38845-23.043 0-0.38845 0.38845-0.38845 22.655 0 23.043 0.38845 0.38845 22.655 0.38845 23.043 0 0.17881-0.17881 0.26951-1.1512 0.26951-2.8894 0-2.3104 0.05501-2.6898 0.46548-3.2117 0.33761-0.4292 0.67248-0.59177 1.219-0.59177 0.54648 0 0.88135 0.16257 1.219 0.59177 0.41406 0.5264 0.46549 0.89934 0.46549 3.3761 0 3.7642-0.53469 4.9936-2.5828 5.9389-0.78697 0.36321-1.518 0.41524-5.8956 0.41956l-4.9972 0.0051v22.239l20.55-0.11688 0.11229-5.7271c0.12184-6.2135 0.15431-6.3816 1.4905-7.7178 1.2968-1.2968 1.6166-1.3691 6.5948-1.4905l4.6042-0.1123 0.1246-6.3875-0.84835-0.54129c-1.7425-1.1118-2.5328-2.4888-2.5328-4.4131 0-2.8662 2.069-4.9312 4.941-4.9312 2.872 0 4.941 2.0649 4.941 4.9312 0 1.9243-0.79026 3.3013-2.5328 4.4131l-0.84835 0.54129 0.1246 6.3875h9.2083l0.0582-11.496 0.0582-11.496 0.58973-0.46388c0.57651-0.45348 0.821-0.46389 10.891-0.46389h10.301l5e-3 -4.9972c5e-3 -5.4243 0.1437-6.1592 1.3722-7.2885 1.294-1.1896 1.3014-1.1902 13.832-1.1849 10.826 0.0045 11.692 0.03355 12.528 0.41955 1.0872 0.5018 1.7715 1.2128 2.2352 2.3226 0.2988 0.71511 0.34692 2.4651 0.34268 12.462-4e-3 10.827-0.0335 11.692-0.41956 12.528-0.5018 1.0872-1.2128 1.7715-2.3226 2.2352-0.71511 0.29879-2.4651 0.34692-12.462 0.34268-10.827-0.0045-11.692-0.03355-12.528-0.41956-1.0872-0.50179-1.7715-1.2128-2.2352-2.3226-0.27807-0.66549-0.34762-1.822-0.34762-5.7802v-4.9482h-18.646l0.0585 10.275 0.0584 10.275 3.9304 0.1123c4.2389 0.12112 4.657 0.22635 5.9211 1.4905 1.2511 1.2511 1.3695 1.7036 1.4905 5.6965l0.1123 3.7058 7.8755 0.12224 0.77871-1.1735c1.1105-1.6736 2.3048-2.2639 4.3722-2.1612 1.2604 0.06258 1.7479 0.1985 2.4584 0.68528 3.0836 2.1126 3.0836 6.3108 0 8.4234-0.7105 0.48678-1.198 0.62267-2.4584 0.68528-2.0674 0.10269-3.2617-0.48767-4.3722-2.1612l-0.77871-1.1735-7.8755 0.12224-0.0628 2.8636-0.0628 2.8635h22.942l1.1026 1.1025v26.073h4.9482c3.9582 0 5.1147 0.0695 5.7802 0.3476 1.1098 0.46371 1.8208 1.148 2.3226 2.2352 0.38627 0.83694 0.41462 1.697 0.41462 12.577s-0.0283 11.74-0.41462 12.577c-0.5018 1.0872-1.2128 1.7715-2.3226 2.2352-0.71441 0.29851-2.4681 0.34761-12.413 0.34761-12.475 0-12.49-1e-3 -13.783-1.1898-1.2511-1.1501-1.3668-1.8115-1.3722-7.8394-3e-3 -3.6786 0.0812-5.7371 0.25061-6.109 0.51564-1.1317 2.3412-1.1338 2.8563-3e-3 0.16995 0.373 0.25705 2.3717 0.25705 5.8989 0 3.8498 0.075 5.4098 0.26951 5.6042 0.38845 0.38845 22.655 0.38845 23.043 0 0.38846-0.38846 0.38846-22.655 0-23.043-0.20245-0.20245-3.0694-0.26951-11.522-0.26951-8.4522 0-11.319 0.0671-11.522 0.26951-0.17881 0.17881-0.26951 1.1512-0.26951 2.8894 0 2.3104-0.055 2.6898-0.46548 3.2117-0.64375 0.81838-1.7942 0.81838-2.4379 0-0.41576-0.52856-0.46496-0.89443-0.46055-3.425 5e-3 -3.0735 0.28757-4.1275 1.3722-5.1246 1.1673-1.0731 1.8686-1.1898 7.1502-1.1898h4.9482v-23.807h-20.663l-5e-3 6.3447c-6e-3 6.988-0.0736 7.3936-1.4743 8.78-1.2844 1.2712-1.6921 1.374-5.9324 1.4951l-3.9304 0.1123-0.0617 3.6433-0.0617 3.6433 0.84776 0.54091c1.7589 1.1223 2.5354 2.4932 2.5273 4.4617-0.0118 2.85-2.102 4.8992-4.985 4.8872-2.8266-0.0118-4.8921-2.0959-4.8921-4.9361 0-1.9241 0.79029-3.3013 2.5322-4.4127l0.84775-0.54091-0.0617-3.6433-0.0617-3.6433h-9.2083l-0.0582 11.253c-0.0574 11.101-0.0646 11.259-0.52873 11.679-0.44648 0.40424-1.0368 0.42926-11.564 0.49017l-11.094 0.0642v5.1648c0 4.1536-0.06805 5.3277-0.3476 5.9967-0.46371 1.1098-1.148 1.8208-2.2352 2.3226-0.83694 0.38626-1.697 0.41462-12.577 0.41462s-11.74-0.0283-12.577-0.41462zm24.099-3.2139c0.38845-0.38845 0.38845-22.655 0-23.043-0.38845-0.38845-22.655-0.38845-23.043 0-0.38845 0.38845-0.38845 22.655 0 23.043 0.38845 0.38845 22.655 0.38845 23.043 0zm-18.524-3.4617c-1.3339-0.65782-1.4196-1.1446-1.4196-8.0599 0-6.9545 0.08343-7.4171 1.455-8.068 1.1068-0.52519 12.828-0.52519 13.934 0 1.3716 0.65085 1.455 1.1135 1.455 8.068s-0.08343 7.4171-1.455 8.068c-1.1024 0.52311-12.907 0.51627-13.97-8e-3zm12.056-8.0599v-5.0533h-10.107v10.107h10.107zm45.406-8.7939c0.51926-0.46992 0.54135-1.8068 0.039-2.3619-0.46993-0.51926-1.8068-0.54135-2.3619-0.039-0.51925 0.46992-0.54134 1.8068-0.039 2.3619 0.46992 0.51925 1.8068 0.54135 2.3619 0.039zm7.9857-17.432 0.62262-0.62273v-30.973l-0.62273-0.62273-0.62273-0.62274h-30.973l-0.62273 0.62274-0.62273 0.62273v30.947l0.53324 0.56761c0.29329 0.31219 0.74808 0.61113 1.0107 0.66432 0.26259 0.05316 7.2719 0.08384 15.576 0.06811l15.099-0.02859zm-28.213-3.1719c-1.1374-0.63043-1.1312-0.56017-1.1397-12.871-6e-3 -8.4524 0.0631-11.656 0.26036-12.089 0.52601-1.1545 0.98558-1.229 7.5813-1.229 5.7757 0 6.0973 0.02215 6.5243 0.44918 0.52411 0.52411 0.58507 1.5248 0.13076 2.1469-0.29593 0.40516-0.70445 0.4439-5.7832 0.54826l-5.4648 0.11229v19.989h19.989v-19.989l-1.8716-0.11229c-1.5121-0.09073-1.9328-0.19605-2.1898-0.54826-0.45405-0.62218-0.39297-1.6228 0.13103-2.1469 0.39499-0.39498 0.74864-0.44918 2.9308-0.44918 2.7431 0 3.5397 0.24549 3.9878 1.229 0.19682 0.43198 0.26832 3.6411 0.26832 12.044 0 12.426 3e-3 12.4-1.229 12.961-0.89531 0.40793-23.384 0.36589-24.125-0.04507zm-13.911-4.5501c0.51925-0.46992 0.54134-1.8068 0.039-2.3619-0.46992-0.51926-1.8068-0.54135-2.3619-0.03903-0.51926 0.46992-0.54135 1.8068-0.03903 2.3619 0.46992 0.51926 1.8068 0.54135 2.3619 0.03903zm60.024-14.579c0.71968-0.71968 0.62329-2.0797-0.18568-2.6198-0.51784-0.34577-1.69-0.17128-2.1474 0.31965-0.97452 1.046-0.23606 2.6528 1.2192 2.6528 0.41871 0 0.91995-0.15866 1.1139-0.35259zm-38.463-24.05c0.51926-0.46992 0.54135-1.8068 0.039-2.3619-0.46992-0.51926-1.8068-0.54134-2.3619-0.03903-0.51925 0.46992-0.54134 1.8068-0.039 2.3619 0.46992 0.51926 1.8068 0.54135 2.3619 0.03903zm58.311-0.57159c0.38845-0.38845 0.38845-22.655 0-23.043-0.38845-0.38845-22.655-0.38845-23.043 0-0.38846 0.38845-0.38846 22.655 0 23.043 0.38845 0.38845 22.655 0.38845 23.043 0zm-18.524-3.4617c-1.3339-0.65782-1.4196-1.1447-1.4196-8.0599 0-6.9545 0.0834-7.4171 1.455-8.068 1.1068-0.52519 12.828-0.52519 13.934 0 1.3716 0.65085 1.455 1.1135 1.455 8.068 0 6.9545-0.0834 7.4171-1.455 8.068-1.1024 0.52311-12.907 0.51628-13.97-0.0081zm12.056-8.0599v-5.0533h-10.107v10.107h10.107zm-12.056 92.731c-1.3339-0.65782-1.4196-1.1446-1.4196-8.0599 0-6.9545 0.0834-7.4171 1.455-8.068 1.1068-0.52519 12.828-0.52519 13.934 0 1.3716 0.65085 1.455 1.1135 1.455 8.068s-0.0834 7.4171-1.455 8.068c-1.1024 0.52311-12.907 0.51627-13.97-8e-3zm12.056-8.0599v-5.0533h-10.107v10.107h10.107zm-96.727-76.611c-1.3339-0.65782-1.4196-1.1447-1.4196-8.0599 0-6.9545 0.08343-7.4171 1.455-8.068 1.1068-0.52519 12.828-0.52519 13.934 0 1.3716 0.65085 1.455 1.1135 1.455 8.068 0 6.9545-0.08343 7.4171-1.455 8.068-1.1024 0.52311-12.907 0.51628-13.97-0.0081zm12.056-8.0599v-5.0533h-10.107v10.107h10.107z" stroke-width=".22459"/>
</svg>
